<?xml version="1.0" encoding="utf-8"?>
<!-- Generator: Adobe Illustrator 21.0.2, SVG Export Plug-In . SVG Version: 6.00 Build 0)  -->
<svg version="1.1" id="圖層_1" xmlns="http://www.w3.org/2000/svg" xmlns:xlink="http://www.w3.org/1999/xlink" x="0px" y="0px"
	 viewBox="0 0 124 118.2" style="enable-background:new 0 0 124 118.2;" xml:space="preserve">
<style type="text/css">
	.st0{fill:#FFFFFF;}
</style>
<g id="XMLID_327_">
	<g id="XMLID_291_">
		<path id="XMLID_292_" class="st0" d="M124,50.3C124,22.5,96.2,0,62,0S0,22.6,0,50.3C0,75.2,22.1,96,51.9,100
			c2,0.4,4.8,1.3,5.5,3.1c0.6,1.6,0.4,4,0.2,5.6c0,0-0.7,4.4-0.9,5.3c-0.3,1.6-1.2,6.1,5.4,3.3s35.7-21,48.7-36l0,0
			C119.6,71.4,124,61.4,124,50.3z M37.7,66.8H25.3c-1.8,0-3.3-1.5-3.3-3.3V38.9c0-1.8,1.5-3.3,3.3-3.3s3.3,1.5,3.3,3.3v21.4h9.1
			c1.8,0,3.3,1.5,3.3,3.3C40.8,65.3,39.5,66.8,37.7,66.8z M50.4,63.5c0,1.8-1.5,3.3-3.3,3.3s-3.3-1.5-3.3-3.3V38.9
			c0-1.8,1.5-3.3,3.3-3.3s3.3,1.5,3.3,3.3V63.5z M80.1,63.5c0,1.4-0.9,2.6-2.2,3.1c-0.3,0.1-0.7,0.2-1,0.2c-1,0-2-0.5-2.6-1.3
			L61.6,48.3v15.2c0,1.8-1.5,3.3-3.3,3.3S55,65.3,55,63.5V38.9c0-1.4,0.9-2.6,2.2-3.1c0.3-0.1,0.7-0.2,1-0.2c1,0,2,0.5,2.6,1.3
			l12.6,17.2V38.9c0-1.8,1.5-3.3,3.3-3.3s3.3,1.5,3.3,3.3L80.1,63.5L80.1,63.5L80.1,63.5z M100,47.9c1.8,0,3.3,1.5,3.3,3.3
			s-1.5,3.3-3.3,3.3h-9.1v5.8h9.1c1.8,0,3.3,1.5,3.3,3.3c0,1.8-1.5,3.3-3.3,3.3H87.6c-1.8,0-3.3-1.5-3.3-3.3V38.9
			c0-1.8,1.5-3.3,3.3-3.3h12.3c1.8,0,3.3,1.5,3.3,3.3s-1.5,3.3-3.3,3.3h-9.1V48L100,47.9L100,47.9z"/>
	</g>
</g>
</svg>
